<svg width="14" height="14" viewBox="0 0 14 14" fill="none" xmlns="http://www.w3.org/2000/svg">
<path d="M5.26 3.10538L4.16667 2.0359C4.41121 1.43567 4.83704 0.92047 5.38875 0.557359C5.94046 0.194248 6.5925 3.67977e-05 7.26 0C9.1 0 10.5933 1.44317 10.5933 3.22135V4.50989H11.26C11.6136 4.50989 11.9528 4.64565 12.2028 4.8873C12.4529 5.12895 12.5933 5.45669 12.5933 5.79844V10.1795L11.26 8.89093V5.79844H8.06L6.72667 4.50989H9.26V3.22135C9.26 2.15186 8.36667 1.28854 7.26 1.28854C6.2 1.28854 5.33333 2.09388 5.26 3.10538ZM14 13.1818L13.1533 14L12.2333 13.1109C11.9933 13.3686 11.6467 13.5297 11.26 13.5297H3.26C2.90638 13.5297 2.56724 13.3939 2.31719 13.1523C2.06714 12.9106 1.92667 12.5829 1.92667 12.2411V5.79844C1.92667 5.08329 2.52 4.50989 3.26 4.50989H3.33333L0 1.28854L0.853333 0.470318L14 13.1818ZM11.26 12.1703L8.49333 9.49655C8.3 9.98619 7.82 10.3083 7.26 10.3083C6.90638 10.3083 6.56724 10.1726 6.31719 9.93092C6.06714 9.68928 5.92667 9.36153 5.92667 9.01979C5.92667 8.47216 6.26 8.01473 6.76667 7.82789L4.66667 5.79844H3.26V12.2411H11.26V12.1703Z" fill="black"/>
</svg>
