<svg width="16" height="16" viewBox="0 0 16 16" fill="none" xmlns="http://www.w3.org/2000/svg">
<path d="M15.5 7.75C15.5 3.46982 12.0302 0 7.75 0C3.46982 0 0 3.46982 0 7.75C0 11.6182 2.83408 14.8245 6.53906 15.4058V9.99023H4.57129V7.75H6.53906V6.04258C6.53906 4.10023 7.69611 3.02734 9.46638 3.02734C10.3143 3.02734 11.2012 3.17871 11.2012 3.17871V5.08594H10.2239C9.26119 5.08594 8.96094 5.68335 8.96094 6.29627V7.75H11.1104L10.7667 9.99023H8.96094V15.4058C12.6659 14.8245 15.5 11.6183 15.5 7.75Z" fill="#1877F2"/>
<path d="M10.7667 9.99023L11.1104 7.75H8.96094V6.29627C8.96094 5.68329 9.26119 5.08594 10.2239 5.08594H11.2012V3.17871C11.2012 3.17871 10.3143 3.02734 9.46632 3.02734C7.69611 3.02734 6.53906 4.10023 6.53906 6.04258V7.75H4.57129V9.99023H6.53906V15.4059C6.93965 15.4686 7.34452 15.5001 7.75 15.5C8.15548 15.5001 8.56035 15.4686 8.96094 15.4059V9.99023H10.7667Z" fill="white"/>
</svg>
