<svg width="16" height="17" viewBox="0 0 16 17" fill="none" xmlns="http://www.w3.org/2000/svg">
<path d="M5.32124 0.46065C3.72259 1.0499 2.34392 2.16831 1.38773 3.65161C0.431539 5.1349 -0.0517701 6.9049 0.00879358 8.70162C0.0693572 10.4983 0.670601 12.2271 1.72421 13.6339C2.77782 15.0407 4.22826 16.0515 5.86249 16.5177C7.18739 16.8809 8.5755 16.8969 9.90749 16.5642C11.1141 16.2762 12.2297 15.6602 13.145 14.7765C14.0976 13.8287 14.789 12.6229 15.145 11.2889C15.5318 9.83808 15.6006 8.31245 15.3462 6.82901H7.90624V10.1082H12.215C12.1289 10.6311 11.9443 11.1303 11.6724 11.5758C11.4005 12.0212 11.0468 12.4038 10.6325 12.7007C10.1064 13.0706 9.51328 13.3194 8.89124 13.4311C8.26742 13.5544 7.62756 13.5544 7.00374 13.4311C6.37143 13.2924 5.77329 13.0151 5.24749 12.617C4.40268 11.9816 3.76834 11.0789 3.43499 10.0378C3.0961 8.97709 3.0961 7.82725 3.43499 6.76659C3.67227 6.02312 4.06453 5.34621 4.58249 4.78635C5.17523 4.13391 5.92566 3.66754 6.75144 3.43841C7.57721 3.20928 8.44644 3.22625 9.26374 3.48745C9.90224 3.6956 10.4861 4.05944 10.9687 4.54995C11.4546 4.03641 11.9396 3.52154 12.4237 3.00534C12.6737 2.72776 12.9462 2.46346 13.1925 2.17924C12.4557 1.45079 11.5908 0.883929 10.6475 0.511119C8.92962 -0.151629 7.04996 -0.16944 5.32124 0.46065Z" fill="white"/>
<path d="M5.32125 0.460563C7.04983 -0.169955 8.92949 -0.152613 10.6475 0.509704C11.591 0.885047 12.4554 1.45464 13.1912 2.1858C12.9412 2.47002 12.6775 2.73564 12.4225 3.01189C11.9375 3.52632 11.4529 4.03897 10.9687 4.54986C10.4861 4.05935 9.90225 3.69551 9.26375 3.48736C8.44672 3.22524 7.57752 3.2073 6.75152 3.43549C5.92552 3.66368 5.17464 4.12919 4.58125 4.78095C4.06329 5.34081 3.67103 6.01773 3.43375 6.76119L0.842499 4.62955C1.77001 2.67529 3.37594 1.18044 5.32125 0.460563Z" fill="#E33629"/>
<path d="M0.154996 6.74136C0.294171 6.00793 0.525404 5.29768 0.842496 4.62964L3.43375 6.76659C3.09486 7.82726 3.09486 8.9771 3.43375 10.0378C2.57041 10.7461 1.70666 11.458 0.842496 12.1734C0.0489348 10.4951 -0.193088 8.58281 0.154996 6.74136Z" fill="#F8BD00"/>
<path d="M7.90626 6.82764H15.3463C15.6006 8.31107 15.5318 9.83671 15.145 11.2875C14.7891 12.6216 14.0976 13.8273 13.145 14.7751C12.3088 14.0819 11.4688 13.3939 10.6325 12.7006C11.0471 12.4035 11.401 12.0205 11.6729 11.5745C11.9448 11.1286 12.1292 10.6289 12.215 10.1054H7.90626C7.90501 9.01373 7.90626 7.92068 7.90626 6.82764Z" fill="#587DBD"/>
<path d="M0.841248 12.1732C1.70541 11.4649 2.56916 10.753 3.4325 10.0376C3.76651 11.0791 4.40175 11.9818 5.2475 12.6168C5.77494 13.0131 6.37437 13.2881 7.0075 13.4243C7.63132 13.5476 8.27118 13.5476 8.895 13.4243C9.51703 13.3126 10.1102 13.0638 10.6362 12.6938C11.4725 13.3871 12.3125 14.0751 13.1487 14.7684C12.2336 15.6525 11.118 16.269 9.91125 16.5574C8.57926 16.8901 7.19115 16.8741 5.86625 16.5109C4.81838 16.2136 3.83959 15.6896 2.99125 14.9716C2.09341 14.214 1.36004 13.2595 0.841248 12.1732Z" fill="#319F43"/>
</svg>
