<svg width="25" height="25" viewBox="0 0 25 25" fill="none" xmlns="http://www.w3.org/2000/svg">
<path d="M24.5834 6.74844C24.5844 6.58941 24.5539 6.43177 24.4937 6.28455C24.4336 6.13733 24.345 6.00343 24.233 5.89052L19.1097 0.767185C18.9968 0.655195 18.8629 0.566594 18.7157 0.506461C18.5684 0.446329 18.4108 0.415849 18.2518 0.416768C18.0927 0.415849 17.9351 0.446329 17.7879 0.506461C17.6407 0.566594 17.5068 0.655195 17.3939 0.767185L13.9743 4.18677L0.767185 17.3939C0.655195 17.5068 0.566594 17.6407 0.506461 17.7879C0.446329 17.9351 0.415849 18.0927 0.416768 18.2518V23.3751C0.416768 23.6956 0.544074 24.0029 0.770681 24.2295C0.997287 24.4561 1.30463 24.5834 1.6251 24.5834H6.74844C6.91751 24.5926 7.08664 24.5662 7.24484 24.5058C7.40305 24.4455 7.54679 24.3525 7.66677 24.233L20.8014 11.0259L24.233 7.66677C24.3433 7.54966 24.4332 7.41487 24.4989 7.26802C24.5105 7.1717 24.5105 7.07433 24.4989 6.97802C24.5045 6.92177 24.5045 6.8651 24.4989 6.80885L24.5834 6.74844ZM6.25302 22.1668H2.83344V18.7472L14.8322 6.74844L18.2518 10.168L6.25302 22.1668ZM19.9555 8.46427L16.5359 5.04468L18.2518 3.34093L21.6593 6.74844L19.9555 8.46427Z" fill="black"/>
</svg>
