<svg width="10" height="14" viewBox="0 0 10 14" fill="none" xmlns="http://www.w3.org/2000/svg">
<path d="M5 10.6667C4.66848 10.6667 4.35054 10.5262 4.11612 10.2761C3.8817 10.0261 3.75 9.68696 3.75 9.33333C3.75 8.59333 4.30625 8 5 8C5.33152 8 5.64946 8.14048 5.88388 8.39052C6.1183 8.64057 6.25 8.97971 6.25 9.33333C6.25 9.68696 6.1183 10.0261 5.88388 10.2761C5.64946 10.5262 5.33152 10.6667 5 10.6667ZM8.75 12.6667V6H1.25V12.6667H8.75ZM8.75 4.66667C9.08152 4.66667 9.39946 4.80714 9.63388 5.05719C9.8683 5.30724 10 5.64638 10 6V12.6667C10 13.0203 9.8683 13.3594 9.63388 13.6095C9.39946 13.8595 9.08152 14 8.75 14H1.25C0.918479 14 0.600537 13.8595 0.366116 13.6095C0.131696 13.3594 0 13.0203 0 12.6667V6C0 5.26 0.55625 4.66667 1.25 4.66667H1.875V3.33333C1.875 2.44928 2.20424 1.60143 2.79029 0.976311C3.37634 0.351189 4.1712 0 5 0C5.41038 0 5.81674 0.0862192 6.19589 0.253735C6.57503 0.421251 6.91953 0.666782 7.20971 0.976311C7.49989 1.28584 7.73008 1.6533 7.88712 2.05772C8.04417 2.46214 8.125 2.89559 8.125 3.33333V4.66667H8.75ZM5 1.33333C4.50272 1.33333 4.02581 1.54405 3.67417 1.91912C3.32254 2.29419 3.125 2.8029 3.125 3.33333V4.66667H6.875V3.33333C6.875 2.8029 6.67746 2.29419 6.32583 1.91912C5.97419 1.54405 5.49728 1.33333 5 1.33333Z" fill="black"/>
</svg>
